<svg width="500" height="500" viewBox="0 0 500 500" fill="none" xmlns="http://www.w3.org/2000/svg">
<circle cx="250" cy="250" r="250" fill="#073349"/>
<path d="M500 250C500 388.071 388.071 500 250 500C111.929 500 0 388.071 0 250C0 111.929 111.929 0 250 0C388.071 0 500 111.929 500 250ZM18.9491 250C18.9491 377.606 122.394 481.051 250 481.051C377.606 481.051 481.051 377.606 481.051 250C481.051 122.394 377.606 18.9491 250 18.9491C122.394 18.9491 18.9491 122.394 18.9491 250Z" fill="#61CE70"/>
<path d="M223.746 207.145H290.543C293.473 207.145 295.572 207.73 296.842 208.902C298.111 210.074 298.746 211.588 298.746 213.443C298.746 215.201 298.111 216.666 296.842 217.838C295.572 219.01 293.473 219.596 290.543 219.596H223.746V301.48C223.746 308.609 226.578 314.566 232.242 319.352C238.004 324.137 246.402 326.529 257.438 326.529C265.738 326.529 274.723 325.309 284.391 322.867C294.059 320.328 301.578 317.496 306.949 314.371C308.902 313.102 310.514 312.467 311.783 312.467C313.346 312.467 314.713 313.102 315.885 314.371C317.057 315.543 317.643 316.959 317.643 318.619C317.643 320.084 317.008 321.451 315.738 322.721C312.613 325.943 304.996 329.459 292.887 333.268C280.875 336.979 269.352 338.834 258.316 338.834C243.961 338.834 232.535 335.465 224.039 328.727C215.543 321.988 211.295 312.906 211.295 301.48V219.596H188.59C185.66 219.596 183.561 219.01 182.291 217.838C181.021 216.666 180.387 215.152 180.387 213.297C180.387 211.539 181.021 210.074 182.291 208.902C183.561 207.73 185.66 207.145 188.59 207.145H211.295V170.816C211.295 167.887 211.881 165.787 213.053 164.518C214.225 163.248 215.689 162.613 217.447 162.613C219.303 162.613 220.816 163.248 221.988 164.518C223.16 165.787 223.746 167.887 223.746 170.816V207.145Z" fill="#DCEBF4"/>
<path d="M223.746 207.145H217.746V213.145H223.746V207.145ZM223.746 219.596V213.596H217.746V219.596H223.746ZM232.242 319.352L228.37 323.935L228.389 323.951L228.409 323.967L232.242 319.352ZM284.391 322.867L285.86 328.685L285.887 328.678L285.915 328.67L284.391 322.867ZM306.949 314.371L309.967 319.557L310.095 319.483L310.219 319.402L306.949 314.371ZM315.885 314.371L311.476 318.441L311.557 318.529L311.642 318.614L315.885 314.371ZM315.738 322.721L311.496 318.478L311.463 318.511L311.431 318.544L315.738 322.721ZM292.887 333.268L294.658 339L294.672 338.996L294.687 338.991L292.887 333.268ZM211.295 219.596H217.295V213.596H211.295V219.596ZM211.295 207.145V213.145H217.295V207.145H211.295ZM223.746 213.145H290.543V201.145H223.746V213.145ZM290.543 213.145C291.637 213.145 292.322 213.257 292.702 213.363C293.07 213.466 292.995 213.517 292.772 213.311L300.911 204.494C297.982 201.789 294.008 201.145 290.543 201.145V213.145ZM292.772 213.311C292.798 213.335 292.796 213.337 292.781 213.316C292.765 213.294 292.749 213.265 292.737 213.237C292.725 213.209 292.726 213.202 292.731 213.227C292.736 213.253 292.746 213.322 292.746 213.443H304.746C304.746 210.052 303.51 206.892 300.911 204.494L292.772 213.311ZM292.746 213.443C292.746 213.482 292.744 213.51 292.743 213.526C292.741 213.542 292.74 213.549 292.74 213.547C292.741 213.545 292.742 213.537 292.747 213.523C292.751 213.509 292.757 213.493 292.765 213.475C292.773 213.457 292.781 213.439 292.79 213.424C292.799 213.409 292.806 213.398 292.811 213.391C292.816 213.385 292.816 213.384 292.811 213.39C292.806 213.396 292.793 213.409 292.772 213.429L300.911 222.247C303.436 219.917 304.746 216.843 304.746 213.443H292.746ZM292.772 213.429C292.995 213.223 293.07 213.274 292.702 213.377C292.322 213.483 291.637 213.596 290.543 213.596V225.596C294.008 225.596 297.982 224.951 300.911 222.247L292.772 213.429ZM290.543 213.596H223.746V225.596H290.543V213.596ZM217.746 219.596V301.48H229.746V219.596H217.746ZM217.746 301.48C217.746 310.456 221.419 318.062 228.37 323.935L236.114 314.768C231.738 311.071 229.746 306.763 229.746 301.48H217.746ZM228.409 323.967C235.656 329.986 245.645 332.529 257.438 332.529V320.529C247.16 320.529 240.352 318.288 236.076 314.736L228.409 323.967ZM257.438 332.529C266.321 332.529 275.804 331.224 285.86 328.685L282.922 317.05C273.641 319.393 265.156 320.529 257.438 320.529V332.529ZM285.915 328.67C295.83 326.066 303.932 323.068 309.967 319.557L303.932 309.185C299.224 311.924 292.287 314.59 282.867 317.064L285.915 328.67ZM310.219 319.402C310.966 318.917 311.493 318.655 311.822 318.525C312.166 318.39 312.121 318.467 311.783 318.467V306.467C308.734 306.467 305.908 307.892 303.679 309.34L310.219 319.402ZM311.783 318.467C311.765 318.467 311.717 318.465 311.648 318.45C311.579 318.435 311.512 318.412 311.454 318.385C311.33 318.327 311.345 318.299 311.476 318.441L320.294 310.301C318.119 307.946 315.207 306.467 311.783 306.467V318.467ZM311.642 318.614C311.663 318.635 311.677 318.65 311.684 318.659C311.691 318.667 311.692 318.67 311.691 318.667C311.688 318.664 311.684 318.657 311.678 318.646C311.672 318.634 311.665 318.621 311.659 318.606C311.653 318.591 311.648 318.578 311.645 318.565C311.641 318.553 311.639 318.545 311.639 318.542C311.638 318.54 311.639 318.544 311.64 318.555C311.641 318.567 311.643 318.588 311.643 318.619H323.643C323.643 315.371 322.427 312.428 320.127 310.128L311.642 318.614ZM311.643 318.619C311.643 318.548 311.651 318.468 311.669 318.387C311.687 318.307 311.71 318.249 311.724 318.216C311.754 318.153 311.726 318.248 311.496 318.478L319.981 326.963C322.106 324.839 323.643 322.02 323.643 318.619H311.643ZM311.431 318.544C310.654 319.345 308.784 320.657 305.167 322.327C301.676 323.938 297.008 325.682 291.087 327.544L294.687 338.991C300.875 337.045 306.07 335.126 310.196 333.222C314.196 331.376 317.698 329.319 320.046 326.898L311.431 318.544ZM291.116 327.535C279.599 331.093 268.674 332.834 258.316 332.834V344.834C270.029 344.834 282.151 342.864 294.658 339L291.116 327.535ZM258.316 332.834C244.875 332.834 234.903 329.685 227.767 324.026L220.311 333.428C230.167 341.245 243.047 344.834 258.316 344.834V332.834ZM227.767 324.026C220.793 318.494 217.295 311.188 217.295 301.48H205.295C205.295 314.624 210.293 325.482 220.311 333.428L227.767 324.026ZM217.295 301.48V219.596H205.295V301.48H217.295ZM211.295 213.596H188.59V225.596H211.295V213.596ZM188.59 213.596C187.496 213.596 186.811 213.483 186.431 213.377C186.063 213.274 186.138 213.223 186.361 213.429L178.221 222.247C181.151 224.951 185.125 225.596 188.59 225.596V213.596ZM186.361 213.429C186.335 213.405 186.337 213.403 186.352 213.424C186.368 213.446 186.384 213.475 186.396 213.503C186.408 213.531 186.407 213.538 186.402 213.513C186.397 213.487 186.387 213.418 186.387 213.297H174.387C174.387 216.688 175.623 219.848 178.221 222.247L186.361 213.429ZM186.387 213.297C186.387 213.258 186.388 213.231 186.39 213.214C186.392 213.198 186.393 213.191 186.393 213.193C186.392 213.195 186.39 213.203 186.386 213.217C186.382 213.231 186.376 213.247 186.368 213.266C186.36 213.284 186.352 213.301 186.343 213.316C186.334 213.332 186.327 213.343 186.322 213.349C186.317 213.356 186.317 213.356 186.322 213.35C186.327 213.344 186.339 213.331 186.361 213.311L178.221 204.494C175.697 206.824 174.387 209.898 174.387 213.297H186.387ZM186.361 213.311C186.138 213.517 186.063 213.466 186.431 213.363C186.811 213.257 187.496 213.145 188.59 213.145V201.145C185.125 201.145 181.151 201.789 178.221 204.494L186.361 213.311ZM188.59 213.145H211.295V201.145H188.59V213.145ZM217.295 207.145V170.816H205.295V207.145H217.295ZM217.295 170.816C217.295 169.723 217.408 169.037 217.514 168.657C217.616 168.29 217.667 168.364 217.462 168.587L208.644 160.448C205.939 163.378 205.295 167.352 205.295 170.816H217.295ZM217.462 168.587C217.481 168.566 217.494 168.554 217.5 168.548C217.506 168.543 217.506 168.544 217.5 168.549C217.493 168.553 217.482 168.561 217.467 168.569C217.451 168.578 217.434 168.587 217.416 168.595C217.398 168.603 217.381 168.609 217.367 168.613C217.354 168.617 217.345 168.619 217.343 168.619C217.342 168.62 217.348 168.618 217.365 168.617C217.381 168.615 217.408 168.613 217.447 168.613V156.613C214.048 156.613 210.974 157.924 208.644 160.448L217.462 168.587ZM217.447 168.613C217.569 168.613 217.638 168.624 217.664 168.629C217.689 168.633 217.681 168.634 217.654 168.623C217.625 168.611 217.597 168.595 217.575 168.579C217.553 168.564 217.556 168.562 217.579 168.587L226.397 160.448C223.999 157.849 220.839 156.613 217.447 156.613V168.613ZM217.579 168.587C217.374 168.364 217.425 168.29 217.527 168.657C217.633 169.037 217.746 169.723 217.746 170.816H229.746C229.746 167.352 229.102 163.378 226.397 160.448L217.579 168.587ZM217.746 170.816V207.145H229.746V170.816H217.746Z" fill="#DCEBF4"/>
</svg>
